# xmcd
#
# Track frame offsets:
#	150
#	13630
#	25250
#	40617
#	54260
#	66250
#	78877
#	93092
#	106507
#	120657
#	131570
#	149007
#	159790
#	174067
#	186572
#	202497
#	218317
#	231760
#	245250
#	256030
#
# Disc length: 3558 seconds
#
# Revision: 0
# Processed by: cddbd v1.4PL0 Copyright (c) Steve Scherf et al.
# Submitted via: dBpowerAMP V4.0
#
DISCID=fa0de414
DTITLE=Kenny  Rogers - 20 Track Collection
DYEAR=2002
DGENRE=Country
TTITLE0=Ruby, Don't Take Your Love To Town
TTITLE1=Me and Bobby McGee
TTITLE2=For The Good Times
TTITLE3=Shine On Ruby Mountain
TTITLE4=Elvira
TTITLE5=Reuben James
TTITLE6=Molly
TTITLE7=But You Know That I Love You
TTITLE8=Sunshine
TTITLE9=Goodtime Liberator
TTITLE10=Something's Burning
TTITLE11=Trying Just As Hard
TTITLE12=It's Raining In My Mind
TTITLE13=Shadow In The Corner Of Your Mind
TTITLE14=Tulsa Turnaround
TTITLE15=The Way It Used To Be
TTITLE16=It's Gonna Be Better
TTITLE17=A Stranger In My Place
TTITLE18=She Even Woke Me Up To Say Goodbye
TTITLE19=We All Got To Help Each Other
EXTD=
EXTT0=
EXTT1=
EXTT2=
EXTT3=
EXTT4=
EXTT5=
EXTT6=
EXTT7=
EXTT8=
EXTT9=
EXTT10=
EXTT11=
EXTT12=
EXTT13=
EXTT14=
EXTT15=
EXTT16=
EXTT17=
EXTT18=
EXTT19=
PLAYORDER=
